<?xml version="1.0" encoding="UTF-8"?>
<svg width="176px" height="48px" viewBox="0 0 176 48" version="1.1" xmlns="http://www.w3.org/2000/svg" xmlns:xlink="http://www.w3.org/1999/xlink">
    <!-- Generator: Sketch 52.5 (67469) - http://www.bohemiancoding.com/sketch -->
    <title>HeX Talent Logo left side</title>
    <desc>Created with Sketch.</desc>
    <defs>
        <path d="M6.929,14.95 L6.929,7.709 L0.658,11.33 L0.658,36.67 L6.929,40.29 L11.631,43.006 L13.198,43.91 L19.469,47.531 L19.469,46.138 L19.469,40.289 L19.469,37.783 L19.469,30.543 L13.198,26.923 L13.198,34.163 L13.198,36.669 L6.928,33.049 L6.928,14.95 L6.929,14.95 Z M38.279,29.431 L38.279,33.05 L32.008,36.67 L32.008,18.569 L30.441,17.664 L25.738,14.949 L25.738,24 L25.738,28.228 L25.738,40.29 L25.738,47.531 L32.008,43.91 L33.576,43.006 L38.278,40.29 L44.549,36.67 L44.549,25.81 L38.278,22.19 L38.278,29.431 L38.279,29.431 Z M25.739,7.709 L30.442,10.424 L32.009,11.329 L36.712,14.044 L44.549,18.569 L44.549,11.329 L32.008,4.089 L25.738,0.469 L25.738,7.709 L25.739,7.709 Z M19.469,0.469 L17.977,1.331 L13.199,4.089 L13.199,6.669 L13.199,11.329 L13.199,13.909 L13.199,19.684 L19.47,23.305 L19.47,17.53 L19.47,16.064 L19.47,10.29 L19.47,7.71 L19.47,0.469 L19.469,0.469 Z" id="path-1"></path>
        <linearGradient x1="24.924132%" y1="91.0281962%" x2="73.7940855%" y2="11.0715424%" id="linearGradient-3">
            <stop stop-color="#0094BA" offset="0%"></stop>
            <stop stop-color="#00FFFF" offset="100%"></stop>
        </linearGradient>
    </defs>
    <g id="Page-1" stroke="none" stroke-width="1" fill="none" fill-rule="evenodd">
        <g id="HeX-Talent-Logo-left-side">
            <path d="M106.184,26.488 L101.964,26.488 L98.309,20.351 L94.654,26.488 L90.462,26.488 L96.213,16.834 L90.757,7.673 L94.95,7.673 L98.314,13.304 L101.669,7.673 L105.861,7.673 L100.41,16.82 L106.184,26.488 Z M79.675,18.505 L86.529,18.505 C86.332,17.591 85.924,16.91 85.306,16.462 C84.688,16.014 83.985,15.791 83.196,15.791 C82.264,15.791 81.494,16.028 80.884,16.503 C80.275,16.978 79.872,17.646 79.675,18.505 Z M79.729,21.193 C80.195,22.877 81.458,23.719 83.519,23.719 C84.845,23.719 85.849,23.271 86.53,22.375 L89.324,23.988 C87.998,25.905 86.046,26.864 83.465,26.864 C81.243,26.864 79.46,26.192 78.117,24.848 C76.773,23.504 76.101,21.811 76.101,19.768 C76.101,17.743 76.764,16.054 78.09,14.702 C79.416,13.349 81.118,12.672 83.197,12.672 C85.168,12.672 86.794,13.353 88.075,14.715 C89.356,16.077 89.997,17.761 89.997,19.768 C89.997,20.216 89.952,20.691 89.862,21.193 L79.729,21.193 Z M70.501,7.674 L74.183,7.674 L74.183,26.488 L70.501,26.488 L70.501,18.693 L63.513,18.693 L63.513,26.488 L59.805,26.488 L59.805,7.674 L63.513,7.674 L63.513,15.146 L70.501,15.146 L70.501,7.674 Z" id="Shape" fill="#000000" fill-rule="nonzero"></path>
            <path d="M175.342,15.307 L171.768,15.307 L171.768,22.59 C171.768,23.254 171.898,23.723 172.158,24.001 C172.418,24.279 172.816,24.422 173.354,24.431 C173.891,24.44 174.554,24.427 175.342,24.391 L175.342,26.488 C173.3,26.757 171.804,26.591 170.854,25.99 C169.905,25.39 169.43,24.257 169.43,22.59 L169.43,15.307 L166.769,15.307 L166.769,13.049 L169.43,13.049 L169.43,9.985 L171.768,9.286 L171.768,13.049 L175.342,13.049 L175.342,15.307 Z M160.283,12.7 C161.859,12.7 163.123,13.197 164.072,14.192 C165.022,15.186 165.497,16.534 165.497,18.236 L165.497,26.488 L163.159,26.488 L163.159,18.371 C163.159,17.278 162.863,16.431 162.271,15.831 C161.68,15.231 160.865,14.931 159.826,14.931 C158.662,14.931 157.721,15.294 157.004,16.019 C156.287,16.744 155.929,17.86 155.929,19.365 L155.929,26.488 L153.591,26.488 L153.591,13.049 L155.929,13.049 L155.929,14.985 C156.879,13.461 158.33,12.7 160.283,12.7 Z M144.929,14.904 C143.674,14.904 142.635,15.258 141.811,15.966 C140.987,16.674 140.476,17.619 140.279,18.801 L149.257,18.801 C149.06,17.529 148.558,16.562 147.751,15.898 C146.944,15.235 146.004,14.904 144.929,14.904 Z M140.278,20.844 C140.511,22.045 141.062,22.976 141.931,23.639 C142.8,24.302 143.87,24.634 145.143,24.634 C146.916,24.634 148.206,23.98 149.013,22.672 L151.002,23.8 C149.693,25.825 147.723,26.837 145.089,26.837 C142.956,26.837 141.223,26.17 139.888,24.835 C138.553,23.5 137.886,21.811 137.886,19.769 C137.886,17.744 138.539,16.06 139.848,14.716 C141.156,13.372 142.849,12.7 144.928,12.7 C146.899,12.7 148.507,13.394 149.752,14.783 C150.997,16.171 151.62,17.842 151.62,19.795 C151.62,20.135 151.593,20.484 151.539,20.843 L140.278,20.843 L140.278,20.844 Z M133.443,26.488 L133.443,6.867 L135.782,6.867 L135.782,26.488 L133.443,26.488 Z M123.491,24.58 C124.853,24.58 125.99,24.119 126.904,23.196 C127.818,22.273 128.275,21.131 128.275,19.769 C128.275,18.407 127.818,17.265 126.904,16.342 C125.99,15.419 124.853,14.958 123.491,14.958 C122.147,14.958 121.018,15.419 120.104,16.342 C119.191,17.264 118.734,18.407 118.734,19.769 C118.734,21.131 119.191,22.273 120.104,23.196 C121.019,24.118 122.147,24.58 123.491,24.58 Z M128.275,13.049 L130.613,13.049 L130.613,26.488 L128.275,26.488 L128.275,24.176 C127.11,25.95 125.418,26.837 123.195,26.837 C121.314,26.837 119.711,26.152 118.384,24.781 C117.058,23.41 116.395,21.739 116.395,19.768 C116.395,17.797 117.058,16.126 118.384,14.755 C119.71,13.384 121.314,12.699 123.195,12.699 C125.418,12.699 127.11,13.586 128.275,15.36 L128.275,13.049 Z M118.081,7.674 L118.081,10.039 L112.518,10.039 L112.518,26.488 L110.045,26.488 L110.045,10.039 L104.508,10.039 L104.508,7.674 L118.081,7.674 Z" id="Shape" fill="#000000" fill-rule="nonzero"></path>
            <path d="M172.921,34.869 C172.467,34.869 172.091,34.998 171.793,35.254 C171.494,35.51 171.31,35.852 171.238,36.28 L174.486,36.28 C174.415,35.819 174.233,35.469 173.941,35.229 C173.65,34.989 173.31,34.869 172.921,34.869 Z M171.238,37.02 C171.322,37.454 171.521,37.791 171.836,38.031 C172.151,38.271 172.538,38.391 172.998,38.391 C173.641,38.391 174.107,38.154 174.398,37.681 L175.118,38.089 C174.645,38.821 173.932,39.188 172.978,39.188 C172.207,39.188 171.58,38.947 171.097,38.463 C170.614,37.981 170.372,37.369 170.372,36.63 C170.372,35.898 170.608,35.288 171.081,34.802 C171.555,34.316 172.168,34.073 172.92,34.073 C173.633,34.073 174.215,34.324 174.665,34.827 C175.116,35.329 175.341,35.933 175.341,36.64 C175.341,36.763 175.331,36.89 175.312,37.02 L171.238,37.02 Z M165.559,37.836 C165.89,38.166 166.301,38.332 166.794,38.332 C167.286,38.332 167.698,38.166 168.028,37.836 C168.359,37.505 168.524,37.094 168.524,36.601 C168.524,36.115 168.359,35.706 168.028,35.376 C167.698,35.045 167.286,34.88 166.794,34.88 C166.301,34.88 165.89,35.045 165.559,35.376 C165.228,35.706 165.063,36.114 165.063,36.601 C165.063,37.094 165.228,37.505 165.559,37.836 Z M168.524,34.198 L169.361,34.198 L169.361,38.857 C169.361,39.577 169.118,40.135 168.632,40.535 C168.146,40.933 167.562,41.133 166.881,41.133 C166.337,41.133 165.866,41.03 165.471,40.826 C165.076,40.622 164.778,40.329 164.576,39.946 L165.315,39.528 C165.581,40.073 166.109,40.344 166.901,40.344 C167.406,40.344 167.803,40.211 168.091,39.946 C168.38,39.68 168.524,39.317 168.524,38.857 L168.524,38.166 C168.096,38.815 167.487,39.139 166.696,39.139 C166.003,39.139 165.416,38.893 164.935,38.4 C164.456,37.908 164.216,37.308 164.216,36.601 C164.216,35.895 164.455,35.296 164.935,34.807 C165.415,34.318 166.002,34.073 166.696,34.073 C167.494,34.073 168.103,34.394 168.524,35.036 L168.524,34.198 Z M161.426,34.072 C161.996,34.072 162.453,34.252 162.797,34.612 C163.141,34.971 163.312,35.46 163.312,36.076 L163.312,39.061 L162.466,39.061 L162.466,36.123 C162.466,35.727 162.36,35.422 162.145,35.204 C161.931,34.987 161.636,34.879 161.26,34.879 C160.839,34.879 160.498,35.01 160.239,35.273 C159.979,35.536 159.849,35.939 159.849,36.484 L159.849,39.061 L159.003,39.061 L159.003,34.198 L159.849,34.198 L159.849,34.898 C160.193,34.348 160.719,34.072 161.426,34.072 Z M155.143,38.37 C155.636,38.37 156.047,38.204 156.378,37.87 C156.709,37.536 156.874,37.123 156.874,36.63 C156.874,36.137 156.709,35.724 156.378,35.39 C156.047,35.056 155.636,34.889 155.143,34.889 C154.657,34.889 154.248,35.056 153.917,35.39 C153.587,35.724 153.422,36.137 153.422,36.63 C153.422,37.123 153.587,37.536 153.917,37.87 C154.248,38.204 154.656,38.37 155.143,38.37 Z M156.874,34.198 L157.72,34.198 L157.72,39.061 L156.874,39.061 L156.874,38.224 C156.452,38.867 155.84,39.187 155.035,39.187 C154.355,39.187 153.774,38.939 153.295,38.444 C152.816,37.947 152.575,37.343 152.575,36.63 C152.575,35.917 152.815,35.312 153.295,34.817 C153.774,34.321 154.356,34.073 155.035,34.073 C155.84,34.073 156.452,34.394 156.874,35.036 L156.874,34.198 Z M149.784,34.072 C150.354,34.072 150.811,34.252 151.155,34.612 C151.499,34.971 151.671,35.46 151.671,36.076 L151.671,39.061 L150.824,39.061 L150.824,36.123 C150.824,35.727 150.718,35.422 150.504,35.204 C150.29,34.987 149.995,34.879 149.619,34.879 C149.197,34.879 148.857,35.01 148.598,35.273 C148.339,35.536 148.209,35.939 148.209,36.484 L148.209,39.061 L147.363,39.061 L147.363,32.252 L148.209,32.252 L148.209,34.898 C148.553,34.348 149.077,34.072 149.784,34.072 Z M144.338,39.188 C143.606,39.188 142.996,38.944 142.51,38.455 C142.024,37.965 141.781,37.357 141.781,36.631 C141.781,35.905 142.024,35.297 142.51,34.808 C142.996,34.319 143.606,34.074 144.338,34.074 C144.817,34.074 145.249,34.189 145.632,34.419 C146.014,34.649 146.299,34.959 146.487,35.349 L145.777,35.757 C145.654,35.497 145.464,35.29 145.208,35.134 C144.952,34.979 144.662,34.901 144.338,34.901 C143.852,34.901 143.445,35.067 143.117,35.397 C142.79,35.728 142.626,36.139 142.626,36.632 C142.626,37.118 142.79,37.527 143.117,37.858 C143.445,38.189 143.851,38.354 144.338,38.354 C144.662,38.354 144.954,38.278 145.213,38.125 C145.473,37.973 145.671,37.767 145.807,37.507 L146.527,37.926 C146.319,38.309 146.021,38.614 145.632,38.845 C145.242,39.072 144.811,39.188 144.338,39.188 Z M141.586,39.062 L140.555,39.062 L138.882,36.376 L137.209,39.062 L136.188,39.062 L138.371,35.556 L136.314,32.253 L137.335,32.253 L138.883,34.733 L140.428,32.253 L141.449,32.253 L139.395,35.552 L141.586,39.062 Z M133.261,34.869 C132.807,34.869 132.431,34.998 132.133,35.254 C131.834,35.51 131.65,35.852 131.578,36.28 L134.826,36.28 C134.755,35.819 134.573,35.469 134.282,35.229 C133.99,34.989 133.649,34.869 133.261,34.869 Z M131.578,37.02 C131.662,37.454 131.861,37.791 132.176,38.031 C132.491,38.271 132.878,38.391 133.339,38.391 C133.981,38.391 134.447,38.154 134.739,37.681 L135.459,38.089 C134.985,38.821 134.272,39.188 133.319,39.188 C132.548,39.188 131.92,38.947 131.437,38.463 C130.954,37.981 130.712,37.369 130.712,36.63 C130.712,35.898 130.948,35.288 131.422,34.802 C131.895,34.316 132.508,34.073 133.26,34.073 C133.973,34.073 134.555,34.324 135.006,34.827 C135.456,35.329 135.682,35.933 135.682,36.64 C135.682,36.763 135.672,36.89 135.653,37.02 L131.578,37.02 Z M125.519,39.188 C124.787,39.188 124.177,38.944 123.691,38.455 C123.205,37.965 122.962,37.357 122.962,36.631 C122.962,35.905 123.204,35.297 123.691,34.808 C124.178,34.319 124.787,34.074 125.519,34.074 C125.999,34.074 126.43,34.189 126.813,34.419 C127.196,34.649 127.481,34.959 127.669,35.349 L126.958,35.757 C126.835,35.497 126.645,35.29 126.39,35.134 C126.133,34.979 125.844,34.901 125.519,34.901 C125.034,34.901 124.626,35.067 124.299,35.397 C123.972,35.728 123.808,36.139 123.808,36.632 C123.808,37.118 123.972,37.527 124.299,37.858 C124.626,38.189 125.033,38.354 125.519,38.354 C125.844,38.354 126.135,38.278 126.395,38.125 C126.654,37.973 126.852,37.767 126.988,37.507 L127.708,37.926 C127.501,38.309 127.202,38.614 126.813,38.845 C126.424,39.072 125.992,39.188 125.519,39.188 Z M121.094,39.062 L121.094,34.199 L121.941,34.199 L121.941,39.062 L121.094,39.062 Z M121.521,33.313 C121.36,33.313 121.223,33.258 121.113,33.148 C121.003,33.038 120.948,32.905 120.948,32.749 C120.948,32.594 121.003,32.46 121.113,32.346 C121.223,32.233 121.36,32.176 121.521,32.176 C121.677,32.176 121.81,32.233 121.92,32.346 C122.03,32.46 122.085,32.594 122.085,32.749 C122.085,32.905 122.03,33.038 121.92,33.148 C121.81,33.258 121.678,33.313 121.521,33.313 Z M120.093,35.016 L118.799,35.016 L118.799,37.652 C118.799,37.891 118.846,38.062 118.94,38.163 C119.035,38.263 119.178,38.315 119.373,38.318 C119.568,38.321 119.808,38.316 120.094,38.303 L120.094,39.062 C119.355,39.159 118.813,39.099 118.469,38.882 C118.125,38.664 117.953,38.254 117.953,37.652 L117.953,35.016 L116.991,35.016 L116.991,34.199 L117.953,34.199 L117.953,33.091 L118.8,32.838 L118.8,34.199 L120.094,34.199 L120.094,35.016 L120.093,35.016 Z M113.916,35.497 C113.916,35.682 114.013,35.827 114.203,35.939 C114.394,36.049 114.621,36.143 114.886,36.221 C115.151,36.298 115.416,36.376 115.684,36.455 C115.951,36.533 116.176,36.681 116.363,36.896 C116.548,37.112 116.64,37.388 116.64,37.728 C116.64,38.168 116.47,38.522 116.129,38.788 C115.788,39.054 115.353,39.186 114.82,39.186 C114.347,39.186 113.942,39.082 113.605,38.875 C113.268,38.667 113.028,38.392 112.885,38.048 L113.614,37.63 C113.692,37.863 113.838,38.048 114.052,38.185 C114.266,38.321 114.522,38.389 114.82,38.389 C115.099,38.389 115.33,38.335 115.511,38.228 C115.693,38.122 115.783,37.955 115.783,37.729 C115.783,37.541 115.688,37.39 115.501,37.277 C115.313,37.164 115.086,37.068 114.821,36.989 C114.557,36.909 114.291,36.83 114.023,36.749 C113.756,36.67 113.529,36.525 113.341,36.317 C113.153,36.11 113.059,35.844 113.059,35.52 C113.059,35.098 113.223,34.751 113.55,34.479 C113.877,34.207 114.287,34.071 114.78,34.071 C115.176,34.071 115.527,34.16 115.835,34.339 C116.144,34.517 116.375,34.765 116.53,35.083 L115.82,35.481 C115.645,35.066 115.299,34.859 114.78,34.859 C114.54,34.859 114.336,34.914 114.167,35.026 C114.001,35.137 113.916,35.295 113.916,35.497 Z M111.058,39.062 L111.058,34.199 L111.904,34.199 L111.904,39.062 L111.058,39.062 Z M111.485,33.313 C111.323,33.313 111.186,33.258 111.077,33.148 C110.966,33.038 110.911,32.905 110.911,32.749 C110.911,32.594 110.966,32.46 111.077,32.346 C111.186,32.233 111.323,32.176 111.485,32.176 C111.64,32.176 111.773,32.233 111.883,32.346 C111.993,32.46 112.048,32.594 112.048,32.749 C112.048,32.905 111.993,33.038 111.883,33.148 C111.773,33.258 111.641,33.313 111.485,33.313 Z M107.994,34.072 C108.564,34.072 109.021,34.252 109.365,34.612 C109.709,34.971 109.881,35.46 109.881,36.076 L109.881,39.061 L109.034,39.061 L109.034,36.123 C109.034,35.727 108.927,35.422 108.713,35.204 C108.499,34.987 108.204,34.879 107.828,34.879 C107.407,34.879 107.066,35.01 106.807,35.273 C106.547,35.536 106.417,35.939 106.417,36.484 L106.417,39.061 L105.571,39.061 L105.571,34.198 L106.417,34.198 L106.417,34.898 C106.762,34.348 107.287,34.072 107.994,34.072 Z M101.711,38.37 C102.204,38.37 102.615,38.204 102.946,37.87 C103.277,37.536 103.442,37.123 103.442,36.63 C103.442,36.137 103.277,35.724 102.946,35.39 C102.615,35.056 102.204,34.889 101.711,34.889 C101.225,34.889 100.816,35.056 100.485,35.39 C100.155,35.724 99.99,36.137 99.99,36.63 C99.99,37.123 100.155,37.536 100.485,37.87 C100.816,38.204 101.225,38.37 101.711,38.37 Z M103.442,34.198 L104.288,34.198 L104.288,39.061 L103.442,39.061 L103.442,38.224 C103.021,38.867 102.408,39.187 101.604,39.187 C100.923,39.187 100.343,38.939 99.863,38.444 C99.384,37.947 99.143,37.343 99.143,36.63 C99.143,35.917 99.383,35.312 99.863,34.817 C100.343,34.321 100.924,34.073 101.604,34.073 C102.408,34.073 103.021,34.394 103.442,35.036 L103.442,34.198 Z M96.411,34.072 C96.955,34.072 97.396,34.249 97.733,34.602 C98.07,34.955 98.239,35.433 98.239,36.036 L98.239,39.061 L97.393,39.061 L97.393,36.065 C97.393,35.689 97.295,35.397 97.101,35.19 C96.906,34.983 96.647,34.879 96.323,34.879 C95.96,34.879 95.67,35 95.453,35.243 C95.235,35.486 95.127,35.857 95.127,36.356 L95.127,39.06 L94.281,39.06 L94.281,36.064 C94.281,35.688 94.188,35.396 94.004,35.189 C93.82,34.982 93.568,34.878 93.25,34.878 C92.894,34.878 92.597,35.001 92.36,35.247 C92.123,35.493 92.005,35.863 92.005,36.355 L92.005,39.059 L91.159,39.059 L91.159,34.196 L92.005,34.196 L92.005,34.848 C92.336,34.328 92.818,34.07 93.454,34.07 C94.109,34.07 94.586,34.345 94.884,34.896 C95.222,34.348 95.73,34.072 96.411,34.072 Z M89.029,34.198 L89.876,34.198 L89.876,39.061 L89.029,39.061 L89.029,38.361 C88.685,38.912 88.16,39.187 87.454,39.187 C86.883,39.187 86.426,39.007 86.082,38.648 C85.738,38.288 85.567,37.8 85.567,37.184 L85.567,34.198 L86.413,34.198 L86.413,37.136 C86.413,37.532 86.52,37.838 86.734,38.055 C86.948,38.273 87.243,38.381 87.619,38.381 C88.041,38.381 88.381,38.249 88.64,37.986 C88.899,37.723 89.029,37.32 89.029,36.775 L89.029,34.198 Z M83.408,32.253 L84.303,32.253 L84.303,39.062 L83.408,39.062 L83.408,35.999 L80.101,35.999 L80.101,39.062 L79.197,39.062 L79.197,32.253 L80.101,32.253 L80.101,35.142 L83.408,35.142 L83.408,32.253 Z M73.284,34.869 C72.83,34.869 72.454,34.998 72.156,35.254 C71.858,35.51 71.673,35.852 71.602,36.28 L74.85,36.28 C74.779,35.819 74.597,35.469 74.306,35.229 C74.013,34.989 73.673,34.869 73.284,34.869 Z M71.602,37.02 C71.686,37.454 71.885,37.791 72.2,38.031 C72.515,38.271 72.902,38.391 73.362,38.391 C74.004,38.391 74.471,38.154 74.763,37.681 L75.483,38.089 C75.009,38.821 74.296,39.188 73.343,39.188 C72.572,39.188 71.944,38.947 71.461,38.463 C70.978,37.981 70.736,37.369 70.736,36.63 C70.736,35.898 70.973,35.288 71.446,34.802 C71.919,34.316 72.532,34.073 73.284,34.073 C73.997,34.073 74.579,34.324 75.03,34.827 C75.48,35.329 75.706,35.933 75.706,36.64 C75.706,36.763 75.696,36.89 75.677,37.02 L71.602,37.02 Z M67.945,34.072 C68.516,34.072 68.972,34.252 69.316,34.612 C69.66,34.971 69.831,35.46 69.831,36.076 L69.831,39.061 L68.985,39.061 L68.985,36.123 C68.985,35.727 68.878,35.422 68.664,35.204 C68.451,34.987 68.155,34.879 67.779,34.879 C67.358,34.879 67.017,35.01 66.758,35.273 C66.499,35.536 66.369,35.939 66.369,36.484 L66.369,39.061 L65.523,39.061 L65.523,32.252 L66.369,32.252 L66.369,34.898 C66.713,34.348 67.238,34.072 67.945,34.072 Z M64.716,32.253 L64.716,33.109 L62.703,33.109 L62.703,39.061 L61.808,39.061 L61.808,33.109 L59.805,33.109 L59.805,32.253 L64.716,32.253 Z" id="Shape" fill="#000000" fill-rule="nonzero"></path>
            <g id="Clipped">
                <mask id="mask-2" fill="white">
                    <use xlink:href="#path-1"></use>
                </mask>
                <g id="SVGID_1_"></g>
                <rect id="Rectangle" fill="url(#linearGradient-3)" mask="url(#mask-2)" x="0.658" y="0.469" width="43.892" height="47.063"></rect>
            </g>
        </g>
    </g>
</svg>