<?xml version="1.0" encoding="utf-8"?>
<!-- Generator: Adobe Illustrator 16.0.0, SVG Export Plug-In . SVG Version: 6.00 Build 0)  -->
<!DOCTYPE svg PUBLIC "-//W3C//DTD SVG 1.1//EN" "http://www.w3.org/Graphics/SVG/1.1/DTD/svg11.dtd">
<svg version="1.1" id="Layer_1" xmlns="http://www.w3.org/2000/svg" xmlns:xlink="http://www.w3.org/1999/xlink" x="0px" y="0px"
	 width="240px" height="240px" viewBox="0 0 240 240" enable-background="new 0 0 240 240" xml:space="preserve">
<path d="M138.184,122.488h-4.22l-3.655-6.137l-3.655,6.137h-4.192l5.751-9.654l-5.456-9.161h4.193l3.364,5.631l3.355-5.631h4.192
	l-5.451,9.147L138.184,122.488z M111.675,114.505h6.854c-0.197-0.914-0.605-1.595-1.223-2.043c-0.618-0.448-1.321-0.671-2.11-0.671
	c-0.932,0-1.702,0.237-2.312,0.712C112.275,112.978,111.872,113.646,111.675,114.505z M111.729,117.193
	c0.466,1.684,1.729,2.526,3.79,2.526c1.326,0,2.33-0.448,3.011-1.344l2.794,1.613c-1.326,1.917-3.278,2.876-5.859,2.876
	c-2.222,0-4.005-0.672-5.348-2.016c-1.344-1.344-2.016-3.037-2.016-5.08c0-2.025,0.663-3.714,1.989-5.066
	c1.326-1.353,3.028-2.03,5.107-2.03c1.971,0,3.597,0.681,4.878,2.043c1.281,1.362,1.922,3.046,1.922,5.053
	c0,0.448-0.045,0.923-0.135,1.425H111.729z M102.501,103.674h3.682v18.814h-3.682v-7.795h-6.988v7.795h-3.708v-18.814h3.708v7.472
	h6.988V103.674z"/>
<path d="M207.342,111.307h-3.574v7.283c0,0.664,0.13,1.133,0.39,1.411s0.658,0.421,1.196,0.43c0.537,0.009,1.2-0.004,1.988-0.04
	v2.097c-2.042,0.269-3.538,0.103-4.488-0.498c-0.949-0.6-1.424-1.733-1.424-3.4v-7.283h-2.661v-2.258h2.661v-3.064l2.338-0.699
	v3.763h3.574V111.307z M192.283,108.7c1.576,0,2.84,0.497,3.789,1.492c0.95,0.994,1.425,2.342,1.425,4.044v8.252h-2.338v-8.117
	c0-1.093-0.296-1.94-0.888-2.54c-0.591-0.6-1.406-0.9-2.445-0.9c-1.164,0-2.105,0.363-2.822,1.088s-1.075,1.841-1.075,3.346v7.123
	h-2.338v-13.439h2.338v1.936C188.879,109.461,190.33,108.7,192.283,108.7z M176.929,110.904c-1.255,0-2.294,0.354-3.118,1.062
	c-0.824,0.708-1.335,1.653-1.532,2.835h8.978c-0.197-1.272-0.699-2.239-1.506-2.903
	C178.944,111.235,178.004,110.904,176.929,110.904z M172.278,116.844c0.233,1.201,0.784,2.132,1.653,2.795
	c0.869,0.663,1.939,0.995,3.212,0.995c1.773,0,3.063-0.654,3.87-1.962l1.989,1.128c-1.309,2.025-3.279,3.037-5.913,3.037
	c-2.133,0-3.866-0.667-5.201-2.002s-2.002-3.024-2.002-5.066c0-2.025,0.653-3.709,1.962-5.053c1.308-1.344,3.001-2.016,5.08-2.016
	c1.971,0,3.579,0.694,4.824,2.083c1.245,1.388,1.868,3.059,1.868,5.012c0,0.34-0.027,0.689-0.081,1.048H172.278z M165.443,122.488
	v-19.621h2.339v19.621H165.443z M155.491,120.58c1.362,0,2.499-0.461,3.413-1.384s1.371-2.065,1.371-3.427s-0.457-2.504-1.371-3.427
	c-0.914-0.923-2.051-1.384-3.413-1.384c-1.344,0-2.473,0.461-3.387,1.384c-0.913,0.922-1.37,2.065-1.37,3.427
	s0.457,2.504,1.37,3.427C153.019,120.118,154.147,120.58,155.491,120.58z M160.275,109.049h2.338v13.439h-2.338v-2.312
	c-1.165,1.774-2.857,2.661-5.08,2.661c-1.881,0-3.484-0.685-4.811-2.056c-1.326-1.371-1.989-3.042-1.989-5.013
	c0-1.971,0.663-3.642,1.989-5.013c1.326-1.371,2.93-2.056,4.811-2.056c2.223,0,3.915,0.887,5.08,2.661V109.049z M150.081,103.674
	v2.365h-5.563v16.449h-2.473v-16.449h-5.537v-2.365H150.081z"/>
<path d="M204.921,130.869c-0.454,0-0.83,0.129-1.128,0.385c-0.299,0.256-0.483,0.598-0.555,1.026h3.248
	c-0.071-0.461-0.253-0.811-0.545-1.051C205.65,130.989,205.31,130.869,204.921,130.869 M203.238,133.02
	c0.084,0.434,0.283,0.771,0.598,1.011s0.702,0.36,1.162,0.36c0.643,0,1.109-0.237,1.4-0.71l0.72,0.408
	c-0.473,0.732-1.186,1.099-2.14,1.099c-0.771,0-1.398-0.241-1.881-0.725c-0.483-0.482-0.725-1.094-0.725-1.833
	c0-0.732,0.236-1.342,0.709-1.828c0.474-0.486,1.087-0.729,1.839-0.729c0.713,0,1.295,0.251,1.745,0.754
	c0.451,0.502,0.676,1.106,0.676,1.813c0,0.123-0.01,0.25-0.029,0.38H203.238z M197.559,133.836c0.331,0.33,0.742,0.496,1.235,0.496
	c0.492,0,0.904-0.166,1.234-0.496c0.331-0.331,0.496-0.742,0.496-1.235c0-0.486-0.165-0.895-0.496-1.225
	c-0.33-0.331-0.742-0.496-1.234-0.496c-0.493,0-0.904,0.165-1.235,0.496c-0.331,0.33-0.496,0.738-0.496,1.225
	C197.063,133.094,197.228,133.505,197.559,133.836z M200.524,130.198h0.837v4.659c0,0.72-0.243,1.278-0.729,1.678
	c-0.486,0.398-1.07,0.598-1.751,0.598c-0.544,0-1.015-0.103-1.41-0.307s-0.693-0.497-0.895-0.88l0.739-0.418
	c0.266,0.545,0.794,0.816,1.586,0.816c0.505,0,0.902-0.133,1.19-0.398c0.289-0.266,0.433-0.629,0.433-1.089v-0.691
	c-0.428,0.649-1.037,0.973-1.828,0.973c-0.693,0-1.28-0.246-1.761-0.739c-0.479-0.492-0.719-1.092-0.719-1.799
	c0-0.706,0.239-1.305,0.719-1.794c0.48-0.489,1.067-0.734,1.761-0.734c0.798,0,1.407,0.321,1.828,0.963V130.198z M193.426,130.072
	c0.57,0,1.027,0.18,1.371,0.54c0.344,0.359,0.515,0.848,0.515,1.464v2.985h-0.846v-2.938c0-0.396-0.106-0.701-0.321-0.919
	c-0.214-0.217-0.509-0.325-0.885-0.325c-0.421,0-0.762,0.131-1.021,0.394c-0.26,0.263-0.39,0.666-0.39,1.211v2.577h-0.846v-4.863
	h0.846v0.7C192.193,130.348,192.719,130.072,193.426,130.072z M187.143,134.37c0.493,0,0.904-0.166,1.235-0.5
	s0.496-0.747,0.496-1.24s-0.165-0.906-0.496-1.24s-0.742-0.501-1.235-0.501c-0.486,0-0.895,0.167-1.226,0.501
	c-0.33,0.334-0.495,0.747-0.495,1.24s0.165,0.906,0.495,1.24C186.248,134.204,186.656,134.37,187.143,134.37z M188.874,130.198
	h0.846v4.863h-0.846v-0.837c-0.422,0.643-1.034,0.963-1.839,0.963c-0.68,0-1.261-0.248-1.74-0.743
	c-0.479-0.497-0.72-1.101-0.72-1.814c0-0.713,0.24-1.318,0.72-1.813c0.479-0.496,1.061-0.744,1.74-0.744
	c0.805,0,1.417,0.321,1.839,0.963V130.198z M181.784,130.072c0.57,0,1.027,0.18,1.371,0.54c0.344,0.359,0.516,0.848,0.516,1.464
	v2.985h-0.847v-2.938c0-0.396-0.106-0.701-0.32-0.919c-0.214-0.217-0.509-0.325-0.885-0.325c-0.422,0-0.762,0.131-1.021,0.394
	c-0.259,0.263-0.389,0.666-0.389,1.211v2.577h-0.846v-6.809h0.846v2.646C180.553,130.348,181.077,130.072,181.784,130.072z
	 M176.338,135.188c-0.732,0-1.342-0.244-1.828-0.733c-0.486-0.49-0.729-1.098-0.729-1.824c0-0.726,0.243-1.334,0.729-1.823
	s1.096-0.734,1.828-0.734c0.479,0,0.911,0.115,1.294,0.345c0.382,0.23,0.667,0.54,0.855,0.93l-0.71,0.408
	c-0.123-0.26-0.313-0.467-0.569-0.623c-0.256-0.155-0.546-0.233-0.87-0.233c-0.486,0-0.893,0.166-1.221,0.496
	c-0.327,0.331-0.491,0.742-0.491,1.235c0,0.486,0.164,0.895,0.491,1.226c0.328,0.331,0.734,0.496,1.221,0.496
	c0.324,0,0.616-0.076,0.875-0.229c0.26-0.152,0.458-0.358,0.594-0.618l0.72,0.419c-0.208,0.383-0.506,0.688-0.895,0.919
	C177.242,135.072,176.811,135.188,176.338,135.188z M173.586,135.062h-1.031l-1.673-2.686l-1.673,2.686h-1.021l2.183-3.506
	l-2.057-3.303h1.021l1.548,2.48l1.545-2.48h1.021l-2.054,3.299L173.586,135.062z M165.261,130.869c-0.454,0-0.83,0.129-1.128,0.385
	c-0.299,0.256-0.483,0.598-0.555,1.026h3.248c-0.071-0.461-0.253-0.811-0.544-1.051C165.99,130.989,165.649,130.869,165.261,130.869
	z M163.578,133.02c0.084,0.434,0.283,0.771,0.598,1.011s0.702,0.36,1.163,0.36c0.642,0,1.108-0.237,1.4-0.71l0.72,0.408
	c-0.474,0.732-1.187,1.099-2.14,1.099c-0.771,0-1.399-0.241-1.882-0.725c-0.483-0.482-0.725-1.094-0.725-1.833
	c0-0.732,0.236-1.342,0.71-1.828c0.473-0.486,1.086-0.729,1.838-0.729c0.713,0,1.295,0.251,1.746,0.754
	c0.45,0.502,0.676,1.106,0.676,1.813c0,0.123-0.01,0.25-0.029,0.38H163.578z M157.519,135.188c-0.732,0-1.342-0.244-1.828-0.733
	c-0.486-0.49-0.729-1.098-0.729-1.824c0-0.726,0.242-1.334,0.729-1.823s1.096-0.734,1.828-0.734c0.48,0,0.911,0.115,1.294,0.345
	c0.383,0.23,0.668,0.54,0.856,0.93l-0.711,0.408c-0.123-0.26-0.313-0.467-0.568-0.623c-0.257-0.155-0.546-0.233-0.871-0.233
	c-0.485,0-0.893,0.166-1.22,0.496c-0.327,0.331-0.491,0.742-0.491,1.235c0,0.486,0.164,0.895,0.491,1.226s0.734,0.496,1.22,0.496
	c0.325,0,0.616-0.076,0.876-0.229c0.259-0.152,0.457-0.358,0.593-0.618l0.72,0.419c-0.207,0.383-0.506,0.688-0.895,0.919
	C158.424,135.072,157.992,135.188,157.519,135.188z M153.094,135.062v-4.863h0.847v4.863H153.094z M153.521,129.313
	c-0.161,0-0.298-0.055-0.408-0.165s-0.165-0.243-0.165-0.399c0-0.155,0.055-0.289,0.165-0.403c0.11-0.113,0.247-0.17,0.408-0.17
	c0.156,0,0.289,0.057,0.399,0.17c0.11,0.114,0.165,0.248,0.165,0.403c0,0.156-0.055,0.289-0.165,0.399
	S153.678,129.313,153.521,129.313z M152.093,131.016h-1.294v2.636c0,0.239,0.047,0.41,0.141,0.511
	c0.095,0.1,0.238,0.152,0.433,0.155c0.195,0.003,0.435-0.002,0.721-0.015v0.759c-0.739,0.097-1.281,0.037-1.625-0.18
	c-0.344-0.218-0.516-0.628-0.516-1.23v-2.636h-0.962v-0.817h0.962v-1.108l0.847-0.253v1.361h1.294V131.016z M145.916,131.497
	c0,0.185,0.097,0.33,0.287,0.442c0.191,0.11,0.418,0.204,0.683,0.282c0.265,0.077,0.53,0.155,0.798,0.234
	c0.267,0.078,0.492,0.226,0.679,0.441c0.185,0.216,0.277,0.492,0.277,0.832c0,0.44-0.17,0.794-0.511,1.06s-0.776,0.398-1.309,0.398
	c-0.473,0-0.878-0.104-1.215-0.311c-0.337-0.208-0.577-0.483-0.72-0.827l0.729-0.418c0.078,0.233,0.224,0.418,0.438,0.555
	c0.214,0.136,0.47,0.204,0.768,0.204c0.279,0,0.51-0.054,0.691-0.161c0.182-0.106,0.272-0.273,0.272-0.499
	c0-0.188-0.095-0.339-0.282-0.452c-0.188-0.113-0.415-0.209-0.68-0.288c-0.264-0.08-0.53-0.159-0.798-0.24
	c-0.267-0.079-0.494-0.224-0.682-0.432c-0.188-0.207-0.282-0.473-0.282-0.797c0-0.422,0.164-0.769,0.491-1.041
	s0.737-0.408,1.23-0.408c0.396,0,0.747,0.089,1.055,0.268c0.309,0.178,0.54,0.426,0.695,0.744l-0.71,0.398
	c-0.175-0.415-0.521-0.622-1.04-0.622c-0.24,0-0.444,0.055-0.613,0.167C146.001,131.137,145.916,131.295,145.916,131.497z
	 M143.058,135.062v-4.863h0.846v4.863H143.058z M143.485,129.313c-0.162,0-0.299-0.055-0.408-0.165
	c-0.111-0.11-0.166-0.243-0.166-0.399c0-0.155,0.055-0.289,0.166-0.403c0.109-0.113,0.246-0.17,0.408-0.17
	c0.155,0,0.288,0.057,0.398,0.17c0.11,0.114,0.165,0.248,0.165,0.403c0,0.156-0.055,0.289-0.165,0.399
	S143.641,129.313,143.485,129.313z M139.994,130.072c0.57,0,1.027,0.18,1.371,0.54c0.344,0.359,0.516,0.848,0.516,1.464v2.985
	h-0.847v-2.938c0-0.396-0.107-0.701-0.321-0.919c-0.214-0.217-0.509-0.325-0.885-0.325c-0.421,0-0.762,0.131-1.021,0.394
	c-0.26,0.263-0.39,0.666-0.39,1.211v2.577h-0.846v-4.863h0.846v0.7C138.762,130.348,139.287,130.072,139.994,130.072z
	 M133.711,134.37c0.493,0,0.904-0.166,1.235-0.5s0.496-0.747,0.496-1.24s-0.165-0.906-0.496-1.24s-0.742-0.501-1.235-0.501
	c-0.486,0-0.895,0.167-1.226,0.501c-0.33,0.334-0.495,0.747-0.495,1.24s0.165,0.906,0.495,1.24
	C132.816,134.204,133.225,134.37,133.711,134.37z M135.442,130.198h0.846v4.863h-0.846v-0.837c-0.421,0.643-1.034,0.963-1.838,0.963
	c-0.681,0-1.261-0.248-1.741-0.743c-0.479-0.497-0.72-1.101-0.72-1.814c0-0.713,0.24-1.318,0.72-1.813
	c0.48-0.496,1.061-0.744,1.741-0.744c0.804,0,1.417,0.321,1.838,0.963V130.198z M128.411,130.072c0.544,0,0.985,0.177,1.322,0.53
	c0.337,0.353,0.506,0.831,0.506,1.434v3.025h-0.846v-2.996c0-0.376-0.098-0.668-0.292-0.875c-0.195-0.207-0.454-0.311-0.778-0.311
	c-0.363,0-0.653,0.121-0.87,0.364c-0.218,0.243-0.326,0.614-0.326,1.113v2.704h-0.846v-2.996c0-0.376-0.093-0.668-0.277-0.875
	s-0.436-0.311-0.754-0.311c-0.356,0-0.653,0.123-0.89,0.369c-0.237,0.246-0.355,0.616-0.355,1.108v2.704h-0.846v-4.863h0.846v0.652
	c0.331-0.52,0.813-0.778,1.449-0.778c0.655,0,1.132,0.275,1.43,0.826C127.222,130.348,127.73,130.072,128.411,130.072z
	 M121.029,130.198h0.847v4.863h-0.847v-0.7c-0.344,0.551-0.869,0.826-1.575,0.826c-0.571,0-1.028-0.18-1.372-0.539
	c-0.344-0.36-0.515-0.848-0.515-1.464v-2.986h0.846v2.938c0,0.396,0.107,0.702,0.321,0.919c0.214,0.218,0.509,0.326,0.885,0.326
	c0.422,0,0.762-0.132,1.021-0.395c0.259-0.263,0.389-0.666,0.389-1.211V130.198z M115.408,128.253h0.895v6.809h-0.895v-3.063h-3.307
	v3.063h-0.904v-6.809h0.904v2.889h3.307V128.253z M105.284,130.869c-0.454,0-0.83,0.129-1.128,0.385s-0.483,0.598-0.554,1.026h3.248
	c-0.071-0.461-0.253-0.811-0.544-1.051C106.013,130.989,105.673,130.869,105.284,130.869z M103.602,133.02
	c0.084,0.434,0.283,0.771,0.598,1.011s0.702,0.36,1.162,0.36c0.642,0,1.109-0.237,1.401-0.71l0.72,0.408
	c-0.474,0.732-1.187,1.099-2.14,1.099c-0.771,0-1.399-0.241-1.882-0.725c-0.483-0.482-0.725-1.094-0.725-1.833
	c0-0.732,0.237-1.342,0.71-1.828s1.086-0.729,1.838-0.729c0.713,0,1.295,0.251,1.746,0.754c0.45,0.502,0.676,1.106,0.676,1.813
	c0,0.123-0.01,0.25-0.029,0.38H103.602z M99.945,130.072c0.571,0,1.027,0.18,1.371,0.54c0.344,0.359,0.515,0.848,0.515,1.464v2.985
	h-0.846v-2.938c0-0.396-0.107-0.701-0.321-0.919c-0.213-0.217-0.509-0.325-0.885-0.325c-0.421,0-0.762,0.131-1.021,0.394
	s-0.389,0.666-0.389,1.211v2.577h-0.846v-6.809h0.846v2.646C98.713,130.348,99.238,130.072,99.945,130.072z M96.716,128.253v0.856
	h-2.013v5.952h-0.895v-5.952h-2.003v-0.856H96.716z"/>
<g>
	<defs>
		<path id="SVGID_1_" d="M38.929,110.95v-7.241l-6.271,3.621v25.34l6.271,3.62l4.702,2.716l1.567,0.904l6.271,3.621v-1.393v-5.849
			v-2.506v-7.24l-6.271-3.62v7.24v2.506l-6.27-3.62V110.95z M70.279,125.431v3.619l-6.271,3.62v-18.101l-1.567-0.905l-4.703-2.715
			v9.051v4.228v12.062v7.241l6.27-3.621l1.568-0.904l4.702-2.716l6.271-3.62v-10.86l-6.271-3.62V125.431z M57.739,103.709
			l4.703,2.715l1.567,0.905l4.703,2.715l7.837,4.525v-7.24l-12.541-7.24v0l-6.27-3.62V103.709z M51.469,96.469l-1.492,0.862
			l-4.778,2.758v2.58v4.66v2.58v5.775l6.271,3.621v-5.775v-1.466v-5.774v-2.58v0V96.469z"/>
	</defs>
	<clipPath id="SVGID_2_">
		<use xlink:href="#SVGID_1_"  overflow="visible"/>
	</clipPath>
	<linearGradient id="SVGID_3_" gradientUnits="userSpaceOnUse" x1="43.5977" y1="139.3096" x2="65.0477" y2="101.6796">
		<stop  offset="0" style="stop-color:#0094BA"/>
		<stop  offset="1" style="stop-color:#00FFFF"/>
	</linearGradient>
	<rect x="32.658" y="96.469" clip-path="url(#SVGID_2_)" fill="url(#SVGID_3_)" width="43.892" height="47.063"/>
</g>
</svg>
