<svg width="176" height="48" viewBox="0 0 176 48" fill="none" xmlns="http://www.w3.org/2000/svg">
<path d="M106.184 26.488H101.964L98.3087 20.351L94.6537 26.488H90.4617L96.2127 16.834L90.7567 7.67297H94.9497L98.3137 13.304L101.669 7.67297H105.861L100.41 16.82L106.184 26.488ZM79.6747 18.505H86.5287C86.3317 17.591 85.9237 16.91 85.3057 16.462C84.6877 16.014 83.9847 15.791 83.1957 15.791C82.2637 15.791 81.4937 16.028 80.8837 16.503C80.2747 16.978 79.8717 17.646 79.6747 18.505ZM79.7287 21.193C80.1947 22.877 81.4577 23.719 83.5187 23.719C84.8447 23.719 85.8487 23.271 86.5297 22.375L89.3237 23.988C87.9977 25.905 86.0457 26.864 83.4647 26.864C81.2427 26.864 79.4597 26.192 78.1167 24.848C76.7727 23.504 76.1007 21.811 76.1007 19.768C76.1007 17.743 76.7637 16.054 78.0897 14.702C79.4157 13.349 81.1177 12.672 83.1967 12.672C85.1677 12.672 86.7937 13.353 88.0747 14.715C89.3557 16.077 89.9967 17.761 89.9967 19.768C89.9967 20.216 89.9517 20.691 89.8617 21.193H79.7287ZM70.5007 7.67398H74.1827V26.488H70.5007V18.693H63.5127V26.488H59.8047V7.67398H63.5127V15.146H70.5007V7.67398Z" fill="black"/>
<path d="M175.342 15.3069H171.768V22.5899C171.768 23.2539 171.898 23.7229 172.158 24.0009C172.418 24.2789 172.816 24.4219 173.354 24.4309C173.891 24.4399 174.554 24.4269 175.342 24.3909V26.4879C173.3 26.7569 171.804 26.5909 170.854 25.9899C169.905 25.3899 169.43 24.2569 169.43 22.5899V15.3069H166.769V13.049H169.43V9.98495L171.768 9.28595V13.049H175.342V15.3069V15.3069ZM160.283 12.6999C161.859 12.6999 163.123 13.1969 164.072 14.1919C165.022 15.1859 165.497 16.5339 165.497 18.2359V26.4879H163.159V18.3709C163.159 17.2779 162.863 16.4309 162.271 15.8309C161.68 15.2309 160.865 14.9309 159.826 14.9309C158.662 14.9309 157.721 15.2939 157.004 16.0189C156.287 16.7439 155.929 17.8599 155.929 19.3649V26.4879H153.591V13.049H155.929V14.9849C156.879 13.4609 158.33 12.6999 160.283 12.6999ZM144.929 14.9039C143.674 14.9039 142.635 15.258 141.811 15.966C140.987 16.674 140.476 17.6189 140.279 18.8009H149.257C149.06 17.5289 148.558 16.5619 147.751 15.8979C146.944 15.2349 146.004 14.9039 144.929 14.9039ZM140.278 20.8439C140.511 22.0449 141.062 22.9759 141.931 23.6389C142.8 24.3019 143.87 24.6339 145.143 24.6339C146.916 24.6339 148.206 23.9799 149.013 22.6719L151.002 23.7999C149.693 25.8249 147.723 26.8369 145.089 26.8369C142.956 26.8369 141.223 26.1699 139.888 24.8349C138.553 23.4999 137.886 21.8109 137.886 19.7689C137.886 17.7439 138.539 16.0599 139.848 14.716C141.156 13.372 142.849 12.6999 144.928 12.6999C146.899 12.6999 148.507 13.3939 149.752 14.7829C150.997 16.1709 151.62 17.8419 151.62 19.7949C151.62 20.1349 151.593 20.4839 151.539 20.8429H140.278V20.8439ZM133.443 26.4879V6.86694H135.782V26.4879H133.443ZM123.491 24.5799C124.853 24.5799 125.99 24.1189 126.904 23.1959C127.818 22.2729 128.275 21.1309 128.275 19.7689C128.275 18.4069 127.818 17.2649 126.904 16.3419C125.99 15.4189 124.853 14.9579 123.491 14.9579C122.147 14.9579 121.018 15.4189 120.104 16.3419C119.191 17.2639 118.734 18.4069 118.734 19.7689C118.734 21.1309 119.191 22.2729 120.104 23.1959C121.019 24.1179 122.147 24.5799 123.491 24.5799ZM128.275 13.049H130.613V26.4879H128.275V24.1759C127.11 25.9499 125.418 26.8369 123.195 26.8369C121.314 26.8369 119.711 26.1519 118.384 24.7809C117.058 23.4099 116.395 21.7389 116.395 19.7679C116.395 17.7969 117.058 16.1259 118.384 14.7549C119.71 13.3839 121.314 12.6989 123.195 12.6989C125.418 12.6989 127.11 13.5859 128.275 15.3599V13.049ZM118.081 7.67395V10.0389H112.518V26.4879H110.045V10.0389H104.508V7.67395H118.081Z" fill="black"/>
<path d="M172.921 34.869C172.467 34.869 172.091 34.998 171.793 35.254C171.494 35.51 171.31 35.852 171.238 36.28H174.486C174.415 35.819 174.233 35.469 173.941 35.229C173.65 34.989 173.31 34.869 172.921 34.869ZM171.238 37.02C171.322 37.454 171.521 37.791 171.836 38.031C172.151 38.271 172.538 38.391 172.998 38.391C173.641 38.391 174.107 38.154 174.398 37.681L175.118 38.089C174.645 38.821 173.932 39.188 172.978 39.188C172.207 39.188 171.58 38.947 171.097 38.463C170.614 37.981 170.372 37.369 170.372 36.63C170.372 35.898 170.608 35.288 171.081 34.802C171.555 34.316 172.168 34.073 172.92 34.073C173.633 34.073 174.215 34.324 174.665 34.827C175.116 35.329 175.341 35.933 175.341 36.64C175.341 36.763 175.331 36.89 175.312 37.02H171.238V37.02ZM165.559 37.836C165.89 38.166 166.301 38.332 166.794 38.332C167.286 38.332 167.698 38.166 168.028 37.836C168.359 37.505 168.524 37.094 168.524 36.601C168.524 36.115 168.359 35.706 168.028 35.376C167.698 35.045 167.286 34.88 166.794 34.88C166.301 34.88 165.89 35.045 165.559 35.376C165.228 35.706 165.063 36.114 165.063 36.601C165.063 37.094 165.228 37.505 165.559 37.836ZM168.524 34.198H169.361V38.857C169.361 39.577 169.118 40.135 168.632 40.535C168.146 40.933 167.562 41.133 166.881 41.133C166.337 41.133 165.866 41.03 165.471 40.826C165.076 40.622 164.778 40.329 164.576 39.946L165.315 39.528C165.581 40.073 166.109 40.344 166.901 40.344C167.406 40.344 167.803 40.211 168.091 39.946C168.38 39.68 168.524 39.317 168.524 38.857V38.166C168.096 38.815 167.487 39.139 166.696 39.139C166.003 39.139 165.416 38.893 164.935 38.4C164.456 37.908 164.216 37.308 164.216 36.601C164.216 35.895 164.455 35.296 164.935 34.807C165.415 34.318 166.002 34.073 166.696 34.073C167.494 34.073 168.103 34.394 168.524 35.036V34.198V34.198ZM161.426 34.072C161.996 34.072 162.453 34.252 162.797 34.612C163.141 34.971 163.312 35.46 163.312 36.076V39.061H162.466V36.123C162.466 35.727 162.36 35.422 162.145 35.204C161.931 34.987 161.636 34.879 161.26 34.879C160.839 34.879 160.498 35.01 160.239 35.273C159.979 35.536 159.849 35.939 159.849 36.484V39.061H159.003V34.198H159.849V34.898C160.193 34.348 160.719 34.072 161.426 34.072ZM155.143 38.37C155.636 38.37 156.047 38.204 156.378 37.87C156.709 37.536 156.874 37.123 156.874 36.63C156.874 36.137 156.709 35.724 156.378 35.39C156.047 35.056 155.636 34.889 155.143 34.889C154.657 34.889 154.248 35.056 153.917 35.39C153.587 35.724 153.422 36.137 153.422 36.63C153.422 37.123 153.587 37.536 153.917 37.87C154.248 38.204 154.656 38.37 155.143 38.37ZM156.874 34.198H157.72V39.061H156.874V38.224C156.452 38.867 155.84 39.187 155.035 39.187C154.355 39.187 153.774 38.939 153.295 38.444C152.816 37.947 152.575 37.343 152.575 36.63C152.575 35.917 152.815 35.312 153.295 34.817C153.774 34.321 154.356 34.073 155.035 34.073C155.84 34.073 156.452 34.394 156.874 35.036V34.198ZM149.784 34.072C150.354 34.072 150.811 34.252 151.155 34.612C151.499 34.971 151.671 35.46 151.671 36.076V39.061H150.824V36.123C150.824 35.727 150.718 35.422 150.504 35.204C150.29 34.987 149.995 34.879 149.619 34.879C149.197 34.879 148.857 35.01 148.598 35.273C148.339 35.536 148.209 35.939 148.209 36.484V39.061H147.363V32.252H148.209V34.898C148.553 34.348 149.077 34.072 149.784 34.072ZM144.338 39.188C143.606 39.188 142.996 38.944 142.51 38.455C142.024 37.965 141.781 37.357 141.781 36.631C141.781 35.905 142.024 35.297 142.51 34.808C142.996 34.319 143.606 34.074 144.338 34.074C144.817 34.074 145.249 34.189 145.632 34.419C146.014 34.649 146.299 34.959 146.487 35.349L145.777 35.757C145.654 35.497 145.464 35.29 145.208 35.134C144.952 34.979 144.662 34.901 144.338 34.901C143.852 34.901 143.445 35.067 143.117 35.397C142.79 35.728 142.626 36.139 142.626 36.632C142.626 37.118 142.79 37.527 143.117 37.858C143.445 38.189 143.851 38.354 144.338 38.354C144.662 38.354 144.954 38.278 145.213 38.125C145.473 37.973 145.671 37.767 145.807 37.507L146.527 37.926C146.319 38.309 146.021 38.614 145.632 38.845C145.242 39.072 144.811 39.188 144.338 39.188ZM141.586 39.062H140.555L138.882 36.376L137.209 39.062H136.188L138.371 35.556L136.314 32.253H137.335L138.883 34.733L140.428 32.253H141.449L139.395 35.552L141.586 39.062ZM133.261 34.869C132.807 34.869 132.431 34.998 132.133 35.254C131.834 35.51 131.65 35.852 131.578 36.28H134.826C134.755 35.819 134.573 35.469 134.282 35.229C133.99 34.989 133.649 34.869 133.261 34.869ZM131.578 37.02C131.662 37.454 131.861 37.791 132.176 38.031C132.491 38.271 132.878 38.391 133.339 38.391C133.981 38.391 134.447 38.154 134.739 37.681L135.459 38.089C134.985 38.821 134.272 39.188 133.319 39.188C132.548 39.188 131.92 38.947 131.437 38.463C130.954 37.981 130.712 37.369 130.712 36.63C130.712 35.898 130.948 35.288 131.422 34.802C131.895 34.316 132.508 34.073 133.26 34.073C133.973 34.073 134.555 34.324 135.006 34.827C135.456 35.329 135.682 35.933 135.682 36.64C135.682 36.763 135.672 36.89 135.653 37.02H131.578V37.02ZM125.519 39.188C124.787 39.188 124.177 38.944 123.691 38.455C123.205 37.965 122.962 37.357 122.962 36.631C122.962 35.905 123.204 35.297 123.691 34.808C124.178 34.319 124.787 34.074 125.519 34.074C125.999 34.074 126.43 34.189 126.813 34.419C127.196 34.649 127.481 34.959 127.669 35.349L126.958 35.757C126.835 35.497 126.645 35.29 126.39 35.134C126.133 34.979 125.844 34.901 125.519 34.901C125.034 34.901 124.626 35.067 124.299 35.397C123.972 35.728 123.808 36.139 123.808 36.632C123.808 37.118 123.972 37.527 124.299 37.858C124.626 38.189 125.033 38.354 125.519 38.354C125.844 38.354 126.135 38.278 126.395 38.125C126.654 37.973 126.852 37.767 126.988 37.507L127.708 37.926C127.501 38.309 127.202 38.614 126.813 38.845C126.424 39.072 125.992 39.188 125.519 39.188ZM121.094 39.062V34.199H121.941V39.062H121.094ZM121.521 33.313C121.36 33.313 121.223 33.258 121.113 33.148C121.003 33.038 120.948 32.905 120.948 32.749C120.948 32.594 121.003 32.46 121.113 32.346C121.223 32.233 121.36 32.176 121.521 32.176C121.677 32.176 121.81 32.233 121.92 32.346C122.03 32.46 122.085 32.594 122.085 32.749C122.085 32.905 122.03 33.038 121.92 33.148C121.81 33.258 121.678 33.313 121.521 33.313ZM120.093 35.016H118.799V37.652C118.799 37.891 118.846 38.062 118.94 38.163C119.035 38.263 119.178 38.315 119.373 38.318C119.568 38.321 119.808 38.316 120.094 38.303V39.062C119.355 39.159 118.813 39.099 118.469 38.882C118.125 38.664 117.953 38.254 117.953 37.652V35.016H116.991V34.199H117.953V33.091L118.8 32.838V34.199H120.094V35.016H120.093ZM113.916 35.497C113.916 35.682 114.013 35.827 114.203 35.939C114.394 36.049 114.621 36.143 114.886 36.221C115.151 36.298 115.416 36.376 115.684 36.455C115.951 36.533 116.176 36.681 116.363 36.896C116.548 37.112 116.64 37.388 116.64 37.728C116.64 38.168 116.47 38.522 116.129 38.788C115.788 39.054 115.353 39.186 114.82 39.186C114.347 39.186 113.942 39.082 113.605 38.875C113.268 38.667 113.028 38.392 112.885 38.048L113.614 37.63C113.692 37.863 113.838 38.048 114.052 38.185C114.266 38.321 114.522 38.389 114.82 38.389C115.099 38.389 115.33 38.335 115.511 38.228C115.693 38.122 115.783 37.955 115.783 37.729C115.783 37.541 115.688 37.39 115.501 37.277C115.313 37.164 115.086 37.068 114.821 36.989C114.557 36.909 114.291 36.83 114.023 36.749C113.756 36.67 113.529 36.525 113.341 36.317C113.153 36.11 113.059 35.844 113.059 35.52C113.059 35.098 113.223 34.751 113.55 34.479C113.877 34.207 114.287 34.071 114.78 34.071C115.176 34.071 115.527 34.16 115.835 34.339C116.144 34.517 116.375 34.765 116.53 35.083L115.82 35.481C115.645 35.066 115.299 34.859 114.78 34.859C114.54 34.859 114.336 34.914 114.167 35.026C114.001 35.137 113.916 35.295 113.916 35.497ZM111.058 39.062V34.199H111.904V39.062H111.058ZM111.485 33.313C111.323 33.313 111.186 33.258 111.077 33.148C110.966 33.038 110.911 32.905 110.911 32.749C110.911 32.594 110.966 32.46 111.077 32.346C111.186 32.233 111.323 32.176 111.485 32.176C111.64 32.176 111.773 32.233 111.883 32.346C111.993 32.46 112.048 32.594 112.048 32.749C112.048 32.905 111.993 33.038 111.883 33.148C111.773 33.258 111.641 33.313 111.485 33.313ZM107.994 34.072C108.564 34.072 109.021 34.252 109.365 34.612C109.709 34.971 109.881 35.46 109.881 36.076V39.061H109.034V36.123C109.034 35.727 108.927 35.422 108.713 35.204C108.499 34.987 108.204 34.879 107.828 34.879C107.407 34.879 107.066 35.01 106.807 35.273C106.547 35.536 106.417 35.939 106.417 36.484V39.061H105.571V34.198H106.417V34.898C106.762 34.348 107.287 34.072 107.994 34.072ZM101.711 38.37C102.204 38.37 102.615 38.204 102.946 37.87C103.277 37.536 103.442 37.123 103.442 36.63C103.442 36.137 103.277 35.724 102.946 35.39C102.615 35.056 102.204 34.889 101.711 34.889C101.225 34.889 100.816 35.056 100.485 35.39C100.155 35.724 99.9897 36.137 99.9897 36.63C99.9897 37.123 100.155 37.536 100.485 37.87C100.816 38.204 101.225 38.37 101.711 38.37ZM103.442 34.198H104.288V39.061H103.442V38.224C103.021 38.867 102.408 39.187 101.604 39.187C100.923 39.187 100.343 38.939 99.8627 38.444C99.3837 37.947 99.1427 37.343 99.1427 36.63C99.1427 35.917 99.3827 35.312 99.8627 34.817C100.343 34.321 100.924 34.073 101.604 34.073C102.408 34.073 103.021 34.394 103.442 35.036V34.198ZM96.4107 34.072C96.9547 34.072 97.3957 34.249 97.7327 34.602C98.0697 34.955 98.2387 35.433 98.2387 36.036V39.061H97.3927V36.065C97.3927 35.689 97.2947 35.397 97.1007 35.19C96.9057 34.983 96.6467 34.879 96.3227 34.879C95.9597 34.879 95.6697 35 95.4527 35.243C95.2347 35.486 95.1267 35.857 95.1267 36.356V39.06H94.2807V36.064C94.2807 35.688 94.1877 35.396 94.0037 35.189C93.8197 34.982 93.5677 34.878 93.2497 34.878C92.8937 34.878 92.5967 35.001 92.3597 35.247C92.1227 35.493 92.0047 35.863 92.0047 36.355V39.059H91.1587V34.196H92.0047V34.848C92.3357 34.328 92.8177 34.07 93.4537 34.07C94.1087 34.07 94.5857 34.345 94.8837 34.896C95.2217 34.348 95.7297 34.072 96.4107 34.072ZM89.0287 34.198H89.8757V39.061H89.0287V38.361C88.6847 38.912 88.1597 39.187 87.4537 39.187C86.8827 39.187 86.4257 39.007 86.0817 38.648C85.7377 38.288 85.5667 37.8 85.5667 37.184V34.198H86.4127V37.136C86.4127 37.532 86.5197 37.838 86.7337 38.055C86.9477 38.273 87.2427 38.381 87.6187 38.381C88.0407 38.381 88.3807 38.249 88.6397 37.986C88.8987 37.723 89.0287 37.32 89.0287 36.775V34.198ZM83.4077 32.253H84.3027V39.062H83.4077V35.999H80.1007V39.062H79.1967V32.253H80.1007V35.142H83.4077V32.253ZM73.2837 34.869C72.8297 34.869 72.4537 34.998 72.1557 35.254C71.8577 35.51 71.6727 35.852 71.6017 36.28H74.8497C74.7787 35.819 74.5967 35.469 74.3057 35.229C74.0127 34.989 73.6727 34.869 73.2837 34.869ZM71.6017 37.02C71.6857 37.454 71.8847 37.791 72.1997 38.031C72.5147 38.271 72.9017 38.391 73.3617 38.391C74.0037 38.391 74.4707 38.154 74.7627 37.681L75.4827 38.089C75.0087 38.821 74.2957 39.188 73.3427 39.188C72.5717 39.188 71.9437 38.947 71.4607 38.463C70.9777 37.981 70.7357 37.369 70.7357 36.63C70.7357 35.898 70.9727 35.288 71.4457 34.802C71.9187 34.316 72.5317 34.073 73.2837 34.073C73.9967 34.073 74.5787 34.324 75.0297 34.827C75.4797 35.329 75.7057 35.933 75.7057 36.64C75.7057 36.763 75.6957 36.89 75.6767 37.02H71.6017V37.02ZM67.9447 34.072C68.5157 34.072 68.9717 34.252 69.3157 34.612C69.6597 34.971 69.8307 35.46 69.8307 36.076V39.061H68.9847V36.123C68.9847 35.727 68.8777 35.422 68.6637 35.204C68.4507 34.987 68.1547 34.879 67.7787 34.879C67.3577 34.879 67.0167 35.01 66.7577 35.273C66.4987 35.536 66.3687 35.939 66.3687 36.484V39.061H65.5227V32.252H66.3687V34.898C66.7127 34.348 67.2377 34.072 67.9447 34.072ZM64.7157 32.253V33.109H62.7027V39.061H61.8077V33.109H59.8047V32.253H64.7157Z" fill="black"/>
<path d="M44.5502 0.468994H0.658203V47.532H44.5502V0.468994Z" fill="url(#paint0_linear_3129_8265)"/>
<defs>
<linearGradient id="paint0_linear_3129_8265" x1="11.5979" y1="43.3096" x2="33.0479" y2="5.67959" gradientUnits="userSpaceOnUse">
<stop stop-color="#0094BA"/>
<stop offset="1" stop-color="#00FFFF"/>
</linearGradient>
</defs>
</svg>
