<svg width="196" height="42" viewBox="0 0 196 42" fill="none" xmlns="http://www.w3.org/2000/svg">
<g clip-path="url(#clip0_1398_15889)">
<path fill-rule="evenodd" clip-rule="evenodd" d="M62.4836 31.6738C59.3209 31.6738 59.5117 28.5537 59.5117 27.6968L59.4752 30.3864C58.0778 31.2308 56.4793 31.6758 54.8508 31.6738C53.6928 31.6911 52.5443 31.4607 51.4807 30.9979C50.4171 30.535 49.4625 29.8502 48.6796 28.9883C47.87 28.1507 47.232 27.1601 46.8021 26.0731C46.3723 24.9861 46.159 23.8241 46.1746 22.6538C46.1821 20.2639 47.1256 17.974 48.799 16.284C50.4725 14.5941 52.74 13.6414 55.1066 13.6338C56.2794 13.6159 57.4431 13.8439 58.5242 14.3033C59.6052 14.7627 60.5802 15.4436 61.3874 16.3029C62.2372 17.1207 62.9106 18.1069 63.3654 19.1998C63.8202 20.2926 64.0466 21.4685 64.0305 22.6538V31.6738H62.4836ZM52.1225 25.6591C51.7276 25.2683 51.4158 24.8002 51.2063 24.2834C50.9969 23.7666 50.8942 23.2121 50.9045 22.6538C50.8958 22.103 50.9995 21.5563 51.209 21.0478C51.4186 20.5392 51.7295 20.0797 52.1225 19.6977C52.7119 19.1089 53.4593 18.7076 54.2723 18.5434C55.0852 18.3792 55.928 18.4594 56.6963 18.774C57.4646 19.0887 58.1246 19.6239 58.5947 20.3135C59.0648 21.0031 59.3244 21.8167 59.3412 22.6538C59.3696 23.9043 59.3412 25.5525 59.3412 26.2905C58.0169 26.8903 56.5669 27.1522 55.1188 27.0531C53.9916 26.9481 52.934 26.4561 52.1225 25.6591Z" fill="#0F0D30"/>
<path fill-rule="evenodd" clip-rule="evenodd" d="M85.581 36.5027V22.6529C85.5638 21.4736 85.7859 20.3032 86.2334 19.2139C86.681 18.1245 87.3446 17.1391 88.1835 16.3184C89.0023 15.462 89.9857 14.7835 91.0734 14.3245C92.1611 13.8656 93.3302 13.6358 94.5089 13.6493C95.676 13.6322 96.8337 13.8611 97.9082 14.3214C98.9827 14.7817 99.9503 15.4632 100.749 16.3225C101.596 17.138 102.268 18.1209 102.723 19.21C103.178 20.2991 103.406 21.4711 103.392 22.6529C103.406 23.82 103.192 24.9784 102.762 26.0618C102.333 27.1453 101.695 28.1325 100.887 28.9669C100.111 29.8291 99.1636 30.5159 98.1063 30.9822C97.0491 31.4486 95.9062 31.684 94.7525 31.6729C93.6312 31.7316 92.5186 31.4457 91.5614 30.8529C91.2647 30.6955 90.9914 30.4967 90.7494 30.2625C90.5586 30.0616 90.388 29.1227 90.2987 28.2535V32.5913C90.2998 33.106 90.2001 33.6158 90.0053 34.0913C89.8105 34.5669 89.5245 34.9989 89.1638 35.3624C88.8031 35.726 88.3747 36.0139 87.9033 36.2096C87.432 36.4053 86.927 36.5049 86.4174 36.5027H85.581ZM91.5289 25.6582C91.1359 25.2694 90.8253 24.8039 90.6159 24.2901C90.4066 23.7763 90.3028 23.2249 90.3109 22.6693C90.3022 22.1186 90.4058 21.5719 90.6154 21.0633C90.8249 20.5548 91.1359 20.0952 91.5289 19.7132C91.9105 19.3042 92.3721 18.9797 92.8844 18.7602C93.3966 18.5407 93.9484 18.4311 94.5049 18.4381C95.0522 18.4281 95.5954 18.5355 96.0987 18.7532C96.6019 18.9708 97.0536 19.2939 97.424 19.7009C97.8239 20.084 98.1424 20.5453 98.36 21.0567C98.5776 21.5681 98.6898 22.1189 98.6898 22.6755C98.6898 23.2321 98.5776 23.7829 98.36 24.2943C98.1424 24.8057 97.8239 25.267 97.424 25.65C97.0423 26.0434 96.586 26.355 96.0823 26.5663C95.5787 26.7776 95.0381 26.8843 94.4927 26.88C93.9431 26.8852 93.398 26.7798 92.8892 26.57C92.3803 26.3603 91.9179 26.0503 91.5289 25.6582Z" fill="#0F0D30"/>
<path fill-rule="evenodd" clip-rule="evenodd" d="M105.121 31.6282V9.07816H105.974C106.483 9.076 106.988 9.17563 107.46 9.37133C107.931 9.56703 108.359 9.85493 108.72 10.2185C109.081 10.582 109.367 11.014 109.562 11.4896C109.756 11.9651 109.856 12.4749 109.855 12.9896V31.6282H105.121Z" fill="#0F0D30"/>
<path fill-rule="evenodd" clip-rule="evenodd" d="M133.983 11.1035C133.226 11.7735 132.62 12.5987 132.204 13.5242C131.788 14.4497 131.572 15.4541 131.571 16.4704H130.309V21.2428H131.571V31.378H136.301V21.2428H138.826V16.4704H136.305C136.302 16.0955 136.38 15.7243 136.533 15.3829C136.687 15.0415 136.912 14.7382 137.194 14.4942C137.816 13.9091 138.639 13.5915 139.488 13.6086H140.341V8.83621H139.488C138.468 8.82757 137.456 9.02352 136.511 9.41271C135.566 9.8019 134.706 10.3766 133.983 11.1035Z" fill="#0F0D30"/>
<path fill-rule="evenodd" clip-rule="evenodd" d="M142.148 31.3782V8.82816H143.001C143.511 8.826 144.016 8.92563 144.487 9.12133C144.958 9.31703 145.387 9.60493 145.747 9.96846C146.108 10.332 146.394 10.764 146.589 11.2396C146.784 11.7151 146.883 12.2249 146.882 12.7396V31.3782H142.148Z" fill="#0F0D30"/>
<path fill-rule="evenodd" clip-rule="evenodd" d="M164.129 29.0055C162.448 30.6861 160.177 31.6287 157.812 31.6287C155.446 31.6287 153.176 30.6861 151.494 29.0055C150.656 28.1807 149.992 27.1925 149.543 26.1008C149.095 25.009 148.87 23.8366 148.884 22.6546C148.866 21.4749 149.089 20.3042 149.537 19.2146C149.985 18.1251 150.65 17.14 151.49 16.3201C152.316 15.4751 153.3 14.8041 154.385 14.3461C155.47 13.8882 156.634 13.6523 157.81 13.6523C158.985 13.6523 160.15 13.8882 161.234 14.3461C162.319 14.8041 163.303 15.4751 164.129 16.3201C164.968 17.1435 165.634 18.1284 166.089 19.2164C166.544 20.3044 166.779 21.4735 166.779 22.6546C166.779 23.8357 166.544 25.0049 166.089 26.0929C165.634 27.1809 164.968 28.1657 164.129 28.9891V29.0055ZM157.771 26.8981C158.323 26.908 158.872 26.804 159.383 26.5925C159.894 26.381 160.357 26.0665 160.743 25.6681C161.223 25.1751 161.576 24.5706 161.771 23.9076C161.966 23.2447 161.997 22.5435 161.861 21.8657C161.725 21.1879 161.427 20.554 160.992 20.0198C160.557 19.4856 159.999 19.0672 159.367 18.8015C158.735 18.5358 158.048 18.4308 157.366 18.4957C156.684 18.5606 156.028 18.7934 155.456 19.1738C154.885 19.5541 154.414 20.0704 154.085 20.6773C153.757 21.2841 153.581 21.9631 153.573 22.6546C153.565 23.2102 153.669 23.7616 153.878 24.2754C154.087 24.7892 154.398 25.2547 154.791 25.6435C155.179 26.0437 155.643 26.361 156.155 26.5765C156.667 26.792 157.216 26.9014 157.771 26.8981Z" fill="#0F0D30"/>
<path fill-rule="evenodd" clip-rule="evenodd" d="M119.656 25.752L121.954 19.0362L123.497 14.7927L123.692 14.0137H128.767L126.083 21.4839L120.712 36.5555H120.115C119.616 36.5558 119.124 36.4342 118.682 36.201C118.239 35.9679 117.859 35.63 117.574 35.2163C117.289 34.8026 117.107 34.3254 117.044 33.8254C116.981 33.3253 117.039 32.8174 117.212 32.3448L117.805 30.795L110.992 13.9727H116.018L119.701 22.5827C119.886 22.951 119.963 23.3647 119.924 23.7758L119.656 25.752Z" fill="#0F0D30"/>
<path fill-rule="evenodd" clip-rule="evenodd" d="M194.969 14.0218H190.402C190.377 14.0218 190.353 14.0317 190.336 14.0494C190.318 14.0671 190.309 14.0911 190.309 14.1161V24.1283C190.334 24.5313 190.278 24.9354 190.146 25.3164C190.013 25.6975 189.806 26.0477 189.537 26.3464C189.29 26.6123 188.986 26.8172 188.648 26.945C187.795 27.18 186.895 27.18 186.042 26.945C185.702 26.8183 185.396 26.6133 185.148 26.3464C184.88 26.0474 184.674 25.697 184.542 25.316C184.41 24.9349 184.355 24.5311 184.381 24.1283V14.1161C184.381 14.0911 184.371 14.0671 184.354 14.0494C184.336 14.0317 184.312 14.0218 184.288 14.0218H179.712C179.687 14.0218 179.663 14.0317 179.646 14.0494C179.628 14.0671 179.619 14.0911 179.619 14.1161V24.1283C179.644 24.5311 179.59 24.9349 179.458 25.316C179.326 25.697 179.12 26.0474 178.851 26.3464C178.604 26.6133 178.298 26.8183 177.958 26.945C177.105 27.18 176.205 27.18 175.352 26.945C175.014 26.8172 174.709 26.6123 174.462 26.3464C174.193 26.0477 173.986 25.6975 173.854 25.3164C173.721 24.9354 173.666 24.5313 173.691 24.1283V14.1161C173.691 14.0911 173.681 14.0671 173.664 14.0494C173.646 14.0317 173.622 14.0218 173.598 14.0218H169.05C169.038 14.0218 169.026 14.0242 169.015 14.029C169.003 14.0337 168.993 14.0407 168.984 14.0494C168.976 14.0582 168.969 14.0686 168.964 14.08C168.959 14.0914 168.957 14.1037 168.957 14.1161V24.1283C168.957 26.084 169.517 28.1668 171.3 29.6674C172.924 31.0245 174.625 31.9224 176.675 31.9224C178.725 31.9224 180.418 31.0368 182.022 29.6961C183.622 31.0368 185.327 31.9224 187.365 31.9224C189.403 31.9224 191.129 31.0245 192.741 29.6674C194.523 28.1668 195.083 26.084 195.083 24.1283V14.1161C195.083 14.1018 195.081 14.0876 195.075 14.0746C195.069 14.0615 195.06 14.0501 195.049 14.041C195.038 14.0319 195.025 14.0254 195.011 14.0221C194.998 14.0188 194.983 14.0187 194.969 14.0218Z" fill="#0F0D30"/>
<path fill-rule="evenodd" clip-rule="evenodd" d="M66.0361 36.5027V22.6529C66.0187 21.4732 66.2411 20.3025 66.6894 19.2129C67.1377 18.1234 67.8025 17.1383 68.6426 16.3184C69.4607 15.4621 70.4434 14.7837 71.5304 14.3247C72.6174 13.8657 73.7859 13.6359 74.964 13.6493C76.1317 13.6321 77.2901 13.861 78.3652 14.3212C79.4404 14.7815 80.4087 15.4631 81.2083 16.3225C82.0555 17.138 82.7274 18.1209 83.1822 19.21C83.6369 20.2991 83.8647 21.4711 83.8514 22.6529C83.8675 23.822 83.6553 24.9829 83.2268 26.0691C82.7984 27.1553 82.1622 28.1456 81.3545 28.9833C80.5763 29.8427 79.6273 30.5264 78.5694 30.9899C77.5116 31.4534 76.3688 31.6861 75.2158 31.6729C74.0918 31.7325 72.9763 31.4466 72.0165 30.8529C71.7211 30.6933 71.4481 30.4948 71.2045 30.2625C71.0137 30.0616 70.8431 29.1227 70.7538 28.2535V32.5913C70.7554 33.1058 70.6562 33.6155 70.4619 34.091C70.2676 34.5666 69.9819 34.9986 69.6215 35.3622C69.2611 35.7258 68.833 36.0138 68.3619 36.2095C67.8908 36.4052 67.386 36.5049 66.8765 36.5027H66.0361ZM71.984 25.6582C71.591 25.2694 71.2804 24.8039 71.071 24.2901C70.8617 23.7763 70.7579 23.2249 70.766 22.6693C70.7797 21.55 71.2267 20.4806 72.0112 19.6899C72.7958 18.8991 73.8556 18.4498 74.964 18.4381C75.5114 18.4281 76.0546 18.5355 76.5578 18.7532C77.061 18.9708 77.5128 19.2939 77.8832 19.7009C78.2831 20.084 78.6015 20.5453 78.8191 21.0567C79.0368 21.5681 79.149 22.1189 79.149 22.6755C79.149 23.2321 79.0368 23.7829 78.8191 24.2943C78.6015 24.8057 78.2831 25.267 77.8832 25.65C77.5014 26.0434 77.0451 26.355 76.5415 26.5663C76.0379 26.7777 75.4972 26.8843 74.9519 26.88C74.4016 26.8857 73.8557 26.7806 73.3461 26.5708C72.8366 26.3611 72.3735 26.0508 71.984 25.6582Z" fill="#0F0D30"/>
<path d="M19.6663 38.3299H8.45255C7.14322 38.33 5.8567 37.9837 4.72111 37.3256C3.58552 36.6674 2.64048 35.7203 1.98011 34.5786C1.31974 33.4368 0.967075 32.1403 0.957243 30.8181C0.94741 29.4959 1.28075 28.1942 1.92406 27.0426L7.69739 16.6573C7.98541 16.1405 8.37152 15.6862 8.83363 15.3203C9.29574 14.9544 9.82476 14.6841 10.3904 14.5249C10.9561 14.3657 11.5473 14.3208 12.1302 14.3926C12.7131 14.4644 13.2762 14.6516 13.7874 14.9435C14.2974 15.2361 14.7446 15.6284 15.1031 16.0973C15.4615 16.5663 15.7239 17.1026 15.875 17.6749C16.0262 18.2473 16.063 18.8444 15.9834 19.4313C15.9038 20.0182 15.7094 20.5832 15.4114 21.0935L10.852 29.2156H19.6175C20.7894 29.2441 21.9041 29.7326 22.7252 30.5774C23.5463 31.4223 24.0091 32.5569 24.0154 33.7406C24.0217 34.9244 23.5711 36.064 22.7591 36.9177C21.9472 37.7715 20.8377 38.2721 19.6663 38.3135V38.3299Z" fill="#A028FF"/>
<path d="M18.2042 38.3303H30.502C31.8113 38.3304 33.0978 37.9841 34.2334 37.326C35.369 36.6678 36.3141 35.7207 36.9744 34.579C37.6348 33.4372 37.9875 32.1407 37.9973 30.8185C38.0071 29.4963 37.6738 28.1946 37.0305 27.043L27.9807 29.216H18.2367C15.7764 29.216 14.8223 31.266 14.8223 33.726C14.8223 36.186 15.6952 38.3303 18.2042 38.3303Z" fill="#0F0D30"/>
<path d="M31.5177 17.1025L25.7566 7.38955C25.0851 6.25391 24.1305 5.31592 22.988 4.66916C21.8455 4.02239 20.555 3.68945 19.2453 3.70356C17.9356 3.71766 16.6524 4.07832 15.5238 4.74954C14.3952 5.42077 13.4607 6.37911 12.8133 7.52895L6.9791 17.9389C6.68479 18.447 6.49406 19.0094 6.41812 19.593C6.34218 20.1767 6.38257 20.7698 6.5369 21.3374C6.69124 21.9051 6.95641 22.4358 7.31682 22.8985C7.67723 23.3611 8.1256 23.7463 8.63558 24.0315C9.1433 24.3307 9.70501 24.5247 10.2879 24.6021C10.8707 24.6795 11.463 24.6388 12.0301 24.4823C12.5972 24.3257 13.1276 24.0566 13.5905 23.6905C14.0533 23.3245 14.4392 22.8689 14.7256 22.3505L19.3256 14.2448L23.7916 21.6781C24.3924 22.7127 25.3756 23.4639 26.525 23.7665C27.6743 24.0691 28.8956 23.8982 29.9201 23.2914C30.9447 22.6846 31.6886 21.6917 31.9882 20.5311C32.2878 19.3704 32.1186 18.1371 31.5177 17.1025Z" fill="#FF5B5B"/>
<path d="M10.852 29.216H18.3833C19.5801 29.2105 20.7301 29.6854 21.5802 30.5362C22.4303 31.387 22.9109 32.544 22.9163 33.7526C22.9217 34.9612 22.4514 36.1225 21.6089 36.981C20.7664 37.8395 19.6207 38.3248 18.4239 38.3303H8.45254C7.14322 38.3304 5.8567 37.9841 4.72111 37.326C3.58552 36.6678 2.64048 35.7207 1.98011 34.579C1.31974 33.4372 0.967075 32.1407 0.957243 30.8185C0.94741 29.4963 1.28075 28.1946 1.92406 27.043L10.852 29.216Z" fill="#A028FF"/>
<path d="M30.5033 38.33C31.8126 38.3301 33.0992 37.9838 34.2348 37.3257C35.3703 36.6675 36.3154 35.7204 36.9758 34.5787C37.6361 33.4369 37.9888 32.1404 37.9986 30.8182C38.0084 29.496 37.6751 28.1943 37.0318 27.0427L31.3072 16.7271C29.9877 14.5172 27.2878 13.7054 25.1563 14.9436C24.6332 15.2228 24.172 15.6067 23.8006 16.0719C23.4293 16.5371 23.1557 17.0738 22.9966 17.6493C22.8374 18.2247 22.7959 18.8269 22.8748 19.4191C22.9536 20.0113 23.1511 20.581 23.4552 21.0936L27.9821 29.2157" fill="#0F0D30"/>
</g>
<defs>
<clipPath id="clip0_1398_15889">
<rect width="195" height="41" fill="white" transform="translate(0.5 0.515625)"/>
</clipPath>
</defs>
</svg>
